<?xml version="1.0" standalone="no"?>
<!DOCTYPE svg PUBLIC "-//W3C//DTD SVG 20010904//EN"
 "http://www.w3.org/TR/2001/REC-SVG-20010904/DTD/svg10.dtd">
<svg version="1.0" xmlns="http://www.w3.org/2000/svg"
 width="640.000000pt" height="640.000000pt" viewBox="0 0 640.000000 640.000000"
 preserveAspectRatio="xMidYMid meet">
<metadata>
Created by potrace 1.11, written by Peter Selinger 2001-2013
</metadata>
<g transform="translate(0.000000,640.000000) scale(0.100000,-0.100000)"
fill="#000000" stroke="none">
<path d="M1089 5900 c-20 -4 -46 -6 -58 -5 -11 1 -21 -1 -21 -5 0 -3 -17 -12
-37 -19 -53 -19 -114 -59 -142 -92 -20 -24 -26 -27 -40 -17 -14 11 -14 11 -5
-2 8 -12 3 -29 -22 -77 -18 -34 -34 -61 -36 -60 -2 1 0 -2 4 -7 4 -5 0 -22 -8
-37 -8 -16 -15 -40 -16 -54 -1 -14 -6 -25 -10 -25 -4 0 -5 -6 -2 -14 3 -8 0
-17 -7 -22 -7 -4 -10 -3 -5 4 3 6 2 14 -4 17 -6 4 -9 1 -8 -7 2 -7 -4 -12 -12
-10 -8 2 -11 0 -7 -5 5 -4 14 -8 20 -8 14 -1 11 -46 -4 -55 -6 -4 -4 -12 5
-20 9 -7 13 -16 10 -21 -3 -5 0 -9 6 -9 6 0 8 -5 5 -10 -4 -6 -1 -9 7 -8 7 2
12 -3 10 -10 -1 -8 2 -11 8 -7 5 3 10 2 10 -3 0 -6 7 -13 16 -16 8 -3 13 -2 9
3 -3 5 -2 11 2 14 5 2 2 2 -5 0 -8 -1 -10 2 -6 9 5 7 3 8 -6 3 -9 -6 -11 -4
-5 5 6 9 4 11 -5 5 -9 -5 -11 -4 -6 4 4 7 2 10 -5 9 -6 -2 -14 3 -16 10 -8 20
10 14 46 -17 19 -17 39 -27 44 -24 5 3 3 9 -4 14 -10 6 -10 9 -2 9 14 0 35
-34 27 -43 -4 -3 3 -5 15 -4 21 1 31 17 11 17 -5 0 -10 5 -10 11 0 15 18 2 31
-23 8 -15 8 -19 0 -14 -6 4 -11 3 -11 -2 0 -12 41 -30 63 -26 9 1 17 -1 17 -6
0 -5 12 -7 26 -5 18 2 24 -2 20 -11 -3 -8 -1 -14 5 -14 6 0 9 8 7 18 -2 9 -10
16 -16 14 -7 -1 -23 3 -35 10 -12 7 -25 11 -29 10 -5 -1 -8 2 -8 7 0 6 9 9 19
8 11 0 17 -5 14 -10 -3 -5 0 -7 8 -5 8 3 23 0 34 -5 39 -21 87 -28 98 -13 6 7
7 4 3 -7 -4 -12 -2 -17 6 -14 7 2 12 10 10 16 -1 7 2 10 8 6 8 -5 8 -11 1 -19
-6 -7 -7 -17 -3 -21 4 -5 2 -5 -5 -1 -16 9 -28 -13 -14 -27 9 -9 11 -8 6 4 -4
12 1 15 22 14 33 -1 56 -13 48 -25 -3 -4 3 -14 13 -21 15 -13 16 -12 4 3 -8 9
-9 19 -4 22 6 3 12 0 15 -8 3 -8 16 -12 31 -11 14 2 28 0 31 -5 3 -5 16 -7 30
-5 14 1 28 -2 31 -7 3 -4 10 -6 15 -3 5 4 9 1 9 -5 0 -7 8 -9 20 -5 14 4 19 2
17 -7 -2 -7 -2 -10 0 -5 3 4 9 7 14 7 6 0 8 -4 5 -8 -2 -4 4 -9 15 -9 10 -1
19 2 19 8 0 5 -3 8 -7 7 -5 -1 -18 3 -31 10 -12 7 -27 10 -32 7 -6 -4 -13 1
-16 9 -3 9 -10 16 -16 16 -5 0 -6 -5 -2 -12 5 -7 3 -8 -5 -3 -21 12 3 29 25
17 11 -5 34 -8 53 -7 29 2 31 0 18 -10 -9 -7 -14 -15 -10 -18 3 -4 12 -2 19 4
8 7 14 7 19 -1 5 -8 11 -7 21 1 12 10 15 10 12 -2 -2 -8 3 -13 9 -11 7 1 22
-7 34 -19 17 -17 23 -18 37 -7 9 7 13 8 9 2 -4 -7 2 -11 18 -11 16 0 22 4 18
11 -4 6 2 4 13 -4 29 -22 30 -24 13 -17 -9 3 -22 0 -28 -6 -8 -8 -11 -7 -11 3
0 13 -2 13 -10 0 -9 -13 -11 -13 -20 0 -7 12 -9 11 -8 -5 1 -15 9 -20 29 -20
15 -1 25 3 23 7 -3 4 8 8 24 8 17 0 32 -6 36 -15 3 -9 12 -12 22 -8 12 4 15 3
10 -5 -4 -7 -2 -12 3 -12 14 0 14 15 0 43 -8 19 -8 20 3 7 7 -9 23 -15 36 -14
25 1 30 -11 6 -20 -8 -3 -12 -2 -9 4 3 6 1 10 -4 10 -6 0 -11 -6 -11 -13 0 -8
18 -13 56 -15 39 -1 53 1 48 10 -4 7 -3 8 4 4 19 -11 2 -33 -23 -31 -18 2 -22
-1 -17 -13 3 -10 7 -12 10 -4 6 18 22 14 23 -5 0 -14 2 -13 9 5 10 22 30 31
30 11 0 -5 -4 -8 -8 -5 -5 3 -9 -1 -9 -8 0 -7 6 -13 13 -13 7 0 10 5 7 10 -3
5 0 7 8 5 8 -3 13 -14 11 -24 -2 -14 -1 -16 6 -6 5 8 12 13 16 13 3 -1 6 1 6
4 0 3 0 12 0 21 0 8 -5 12 -10 9 -6 -4 -7 -11 -4 -17 4 -7 2 -8 -4 -4 -7 4
-17 17 -22 29 -10 20 -10 20 3 5 11 -13 16 -15 26 -5 9 9 13 7 17 -11 4 -12
11 -22 17 -22 7 0 7 -4 -1 -12 -15 -15 -15 -28 -1 -28 5 0 7 5 4 10 -3 6 0 13
9 16 8 3 14 11 12 17 -1 7 -1 8 2 4 2 -4 11 -2 20 5 15 11 15 11 4 -4 -20 -25
14 -41 44 -21 17 11 24 11 30 2 4 -8 3 -9 -4 -5 -7 4 -12 1 -12 -8 0 -8 5 -18
10 -21 6 -3 10 -11 10 -16 0 -6 -4 -8 -8 -5 -5 3 -9 -1 -9 -9 0 -11 4 -12 14
-3 7 6 11 19 8 29 -6 19 10 35 20 19 3 -5 11 -10 16 -10 6 0 7 5 3 12 -4 7 -3
8 4 4 6 -4 9 -13 5 -22 -4 -11 -9 -12 -19 -3 -9 7 -14 8 -14 1 0 -5 7 -12 15
-16 9 -3 12 -12 9 -23 -5 -16 -4 -16 8 -3 15 18 25 18 53 4 11 -6 27 -10 35
-9 8 1 21 3 29 3 11 2 11 5 0 20 -12 15 -12 16 2 5 9 -7 18 -11 21 -8 2 3 5
-2 5 -10 0 -8 -4 -12 -8 -10 -3 3 -13 -3 -20 -12 -10 -12 -10 -14 -1 -9 6 4
12 2 12 -3 0 -6 8 -3 18 7 11 9 16 22 13 27 -2 6 2 4 11 -2 8 -7 18 -10 21 -6
4 3 13 1 21 -6 11 -9 15 -9 19 1 4 11 6 10 6 0 1 -8 6 -10 14 -6 6 4 9 4 5 -1
-9 -10 23 -35 35 -28 5 3 0 11 -10 19 -17 13 -17 14 0 8 10 -4 22 -14 27 -23
11 -21 -12 -22 -50 -2 l-25 13 23 -21 c12 -12 26 -20 31 -16 15 8 42 -6 34
-19 -5 -8 -3 -8 8 1 11 9 18 8 31 -1 10 -7 14 -17 10 -22 -4 -4 1 -2 11 5 17
13 15 25 -4 27 -5 1 -13 2 -19 3 -12 1 -13 28 -2 35 4 2 14 0 22 -6 12 -8 11
-9 -3 -4 -12 4 -17 2 -15 -6 6 -16 28 -18 48 -4 13 10 13 9 1 -6 -13 -18 -3
-25 15 -10 5 4 8 5 7 3 -7 -11 20 -29 35 -24 14 5 15 3 5 -7 -10 -11 -15 -11
-28 0 -8 7 -15 8 -15 3 0 -5 12 -15 26 -21 19 -9 24 -9 18 0 -5 8 -2 9 9 5 9
-3 19 -1 23 5 4 7 3 8 -4 4 -7 -4 -12 -2 -12 3 0 14 17 14 25 1 3 -5 13 -10
21 -10 8 0 13 4 10 8 -3 5 1 9 9 9 12 0 12 -3 3 -16 -7 -9 -14 -18 -15 -20 -1
-2 -9 2 -18 9 -10 8 -15 9 -15 1 0 -6 5 -11 11 -11 5 0 7 -5 3 -12 -5 -7 -3
-8 6 -3 7 4 16 2 22 -6 8 -12 9 -11 5 1 -6 18 19 44 28 30 4 -6 11 -8 16 -4 5
3 21 -2 35 -11 19 -12 29 -14 39 -5 10 8 14 8 17 -2 4 -10 8 -10 21 1 11 9 17
10 17 2 0 -6 -5 -11 -10 -11 -6 0 -9 -3 -8 -7 1 -5 -3 -19 -10 -33 -12 -23
-12 -24 2 -6 15 18 21 15 16 -9 -1 -5 4 -4 11 3 7 6 17 12 22 12 4 0 5 -6 1
-12 -6 -10 -4 -10 7 0 20 18 33 15 18 -5 -13 -16 -12 -17 2 -5 10 7 15 22 13
35 -4 20 -4 20 6 -2 8 -17 7 -28 -2 -40 -12 -15 -11 -15 6 -1 18 14 19 13 13
-5 -6 -17 -5 -18 5 -5 15 18 48 25 48 11 0 -5 -7 -12 -15 -14 -11 -4 -10 -4 2
-3 10 1 18 9 18 20 0 12 8 20 21 21 16 1 20 -3 16 -18 -4 -15 -7 -16 -14 -5
-7 9 -8 8 -4 -5 3 -10 6 -22 6 -25 0 -4 4 -1 8 5 4 7 17 14 27 16 11 1 27 7
35 12 13 8 13 7 1 -8 -12 -15 -11 -17 6 -17 11 0 23 -3 27 -7 7 -8 11 -9 37
-12 8 -1 8 -5 0 -15 -8 -9 -8 -16 -2 -20 5 -4 12 -2 16 4 4 6 11 8 16 5 12 -8
51 20 41 30 -4 5 -2 5 5 1 7 -4 10 -13 7 -21 -4 -8 -11 -12 -18 -8 -7 4 -7 1
1 -9 7 -8 10 -18 6 -21 -3 -4 -1 -7 5 -7 7 0 12 5 12 11 0 8 4 8 13 1 10 -9
19 -7 35 4 12 8 22 12 22 7 0 -4 5 -1 11 7 9 13 10 12 5 -2 -3 -10 0 -18 6
-18 7 0 6 -5 -2 -15 -7 -9 -10 -18 -6 -22 3 -3 6 -1 6 6 0 7 5 9 12 5 7 -4 8
-3 4 4 -4 7 -2 12 5 12 8 0 8 4 -1 15 -7 9 -8 15 -2 15 5 0 12 -7 16 -15 3 -8
12 -12 21 -9 8 3 15 2 15 -4 0 -6 12 -9 27 -7 30 3 64 -30 55 -54 -4 -10 -1
-13 11 -8 8 3 21 -1 28 -9 11 -14 13 -14 21 0 5 9 16 16 25 16 14 0 14 -2 -3
-16 -18 -14 -18 -15 4 -4 21 10 26 7 23 -13 -1 -5 4 -5 10 -1 6 3 16 0 21 -7
8 -11 9 -10 5 3 -7 20 20 33 38 18 7 -6 17 -10 21 -9 22 4 35 -2 28 -12 -4 -8
-9 -7 -15 2 -6 10 -8 8 -7 -7 1 -11 8 -21 15 -21 6 0 10 4 7 9 -3 4 2 8 10 8
19 0 21 -11 4 -28 -8 -8 -8 -12 -1 -12 16 0 25 31 13 45 -8 9 -7 14 4 18 8 3
13 -1 12 -10 0 -9 5 -18 13 -21 8 -3 11 0 7 6 -3 6 -2 14 4 17 6 4 10 3 9 -2
-4 -21 2 -24 19 -12 15 13 16 12 3 -3 -7 -10 -18 -15 -25 -11 -6 4 -5 -1 2
-10 8 -9 11 -20 8 -25 -3 -5 1 -9 9 -9 10 0 11 5 4 19 -10 18 -3 23 30 19 7
-2 10 2 6 9 -4 7 1 7 14 -2 12 -7 21 -19 21 -26 0 -7 7 -20 15 -28 8 -9 15
-12 15 -7 0 5 -6 15 -12 22 -11 10 -9 11 7 5 17 -7 18 -6 7 8 -10 13 -10 18
-1 24 7 4 9 3 6 -3 -7 -11 16 -37 25 -28 5 5 25 -14 58 -54 11 -13 20 -19 20
-13 0 6 -5 14 -10 17 -6 4 -7 11 -4 17 4 7 2 8 -4 4 -7 -4 -12 -3 -12 2 0 6 8
13 17 16 10 4 14 4 11 0 -4 -4 -2 -16 4 -28 7 -11 11 -25 10 -30 -2 -5 4 -4
12 3 12 10 16 9 25 -6 6 -10 11 -12 11 -5 0 6 4 12 10 12 5 0 7 -8 4 -17 -5
-17 -5 -17 6 0 6 9 18 17 27 17 14 0 14 -2 -3 -16 -18 -15 -18 -15 3 -5 14 7
24 8 28 1 3 -5 1 -10 -6 -10 -7 0 -10 -3 -7 -6 10 -10 58 27 51 40 -4 6 0 6 9
-2 13 -10 17 -10 22 0 3 7 3 0 1 -16 -5 -34 -11 -41 -20 -27 -3 6 -1 11 5 11
6 0 8 4 5 10 -4 6 -11 5 -19 -3 -12 -10 -12 -13 0 -20 8 -5 12 -12 9 -18 -4
-5 -2 -9 3 -9 5 0 15 14 22 31 11 26 15 28 22 15 5 -9 14 -14 20 -10 6 4 5 9
-3 15 -10 6 -7 8 8 6 15 -1 19 -5 13 -13 -6 -6 -6 -15 -2 -19 4 -5 1 -5 -7 0
-10 6 -12 4 -6 -5 6 -10 11 -10 20 3 20 28 27 19 9 -10 -16 -28 -16 -28 12 2
15 17 25 22 21 13 -4 -12 -2 -15 9 -11 7 3 14 0 14 -7 0 -6 -4 -9 -9 -6 -4 3
-17 -1 -27 -10 -18 -14 -18 -15 4 -4 15 7 22 7 22 0 0 -5 5 -10 11 -10 5 0 7
5 4 10 -3 6 -2 10 4 10 6 0 9 6 7 13 -1 6 -1 9 1 4 3 -4 10 -4 16 0 7 4 5 -2
-3 -12 -11 -14 -12 -19 -2 -22 6 -3 9 -10 5 -16 -5 -8 -2 -8 8 0 11 9 19 9 26
2 6 -6 25 -11 42 -11 18 -1 37 -9 44 -18 12 -17 51 -25 41 -8 -3 5 -10 6 -15
3 -5 -3 -7 0 -6 7 2 7 2 10 0 6 -3 -4 -12 -1 -20 8 -9 8 -22 13 -29 10 -9 -3
-11 0 -7 11 5 12 3 14 -8 7 -23 -14 -38 -13 -32 2 3 8 0 14 -7 14 -6 0 -9 -4
-6 -8 3 -5 -1 -9 -9 -9 -8 0 -15 4 -15 9 0 4 5 8 11 8 5 0 7 5 3 11 -5 8 -1 8
13 0 11 -6 23 -7 27 -3 4 3 4 -2 0 -13 -7 -17 -5 -18 7 -8 12 10 18 10 28 0 9
-9 14 -9 22 3 9 13 10 13 6 -2 -7 -22 3 -30 20 -16 10 8 17 8 26 -1 9 -10 8
-11 -6 -5 -13 5 -16 2 -11 -10 7 -18 35 -21 67 -5 21 10 21 10 3 -5 -11 -9
-23 -16 -27 -16 -4 0 -6 -10 -4 -21 5 -25 18 -42 15 -19 -4 25 0 44 7 37 3 -4
12 -2 20 5 12 9 13 6 9 -16 -4 -23 -2 -26 9 -16 8 6 11 19 9 28 -5 15 -4 15 6
-1 6 -9 9 -21 6 -25 -2 -4 4 -9 15 -9 12 -1 19 5 19 15 0 15 -2 15 -10 2 -5
-8 -10 -10 -10 -5 0 6 4 15 8 22 6 9 11 7 19 -7 10 -15 8 -23 -10 -47 -12 -15
-14 -22 -6 -16 9 7 20 9 24 5 5 -4 5 -2 1 5 -4 8 3 11 23 11 17 -1 29 -5 28
-11 -1 -5 4 -11 11 -13 7 -1 8 0 2 3 -5 2 -7 9 -4 14 4 6 11 6 19 -1 9 -8 15
-8 20 0 3 6 11 8 16 5 5 -4 9 -1 9 4 0 6 4 11 9 11 11 0 8 -26 -4 -37 -4 -4
-5 -2 -1 4 5 9 2 11 -10 6 -15 -6 -15 -7 -1 -18 9 -7 13 -15 9 -19 -4 -4 0 -6
8 -4 8 2 14 -3 12 -10 -1 -8 2 -11 7 -7 12 7 3 35 -11 35 -5 0 -6 4 -3 10 8
14 43 -10 49 -34 4 -15 8 -17 19 -8 8 7 16 10 18 7 3 -2 5 4 5 14 0 11 -6 17
-13 14 -7 -3 -11 -9 -8 -13 3 -5 1 -11 -4 -14 -5 -3 -9 10 -8 29 1 26 3 31 10
20 7 -13 12 -14 23 -4 8 7 14 8 13 3 -4 -20 2 -26 15 -15 12 10 17 8 25 -7 6
-11 7 -23 3 -27 -4 -4 4 -4 18 0 22 7 23 6 12 -8 -11 -13 -10 -15 7 -10 12 3
18 9 15 14 -8 13 10 11 24 -3 13 -13 17 2 5 18 -5 5 0 1 10 -9 9 -11 17 -24
17 -31 0 -6 -5 -4 -10 4 -5 8 -10 10 -10 4 0 -17 12 -25 24 -15 14 12 41 -8
41 -29 0 -9 10 -15 27 -16 15 -1 25 2 23 7 -3 4 -14 5 -25 2 -12 -3 -20 0 -20
7 0 7 7 10 18 6 9 -3 5 3 -10 15 -16 11 -28 26 -28 32 0 6 7 2 15 -9 13 -17
16 -17 26 -4 9 13 10 12 5 -2 -3 -10 2 -23 13 -30 9 -7 20 -20 23 -28 5 -13
-9 -15 -86 -15 -50 0 -97 4 -105 9 -10 6 -12 6 -7 -2 5 -8 -1 -12 -14 -12 -13
0 -19 4 -14 12 5 8 3 8 -7 2 -22 -14 -301 -14 -318 -1 -9 7 -12 8 -8 1 4 -7
-58 -10 -204 -10 -115 1 -209 -3 -209 -7 0 -5 -4 -6 -9 -3 -8 5 -35 6 -116 6
-11 0 -69 0 -128 1 -59 1 -110 -1 -113 -4 -3 -3 -18 -2 -32 3 -15 4 -37 4 -49
-1 -13 -5 -25 -4 -28 1 -3 5 -15 6 -28 1 -14 -5 -30 -5 -40 0 -9 6 -17 6 -17
2 0 -4 -13 -8 -30 -8 -16 0 -30 4 -30 8 0 5 -5 5 -11 2 -15 -10 -129 -11 -129
-2 0 5 -5 5 -11 2 -16 -11 -69 -12 -75 -3 -3 5 -11 5 -17 1 -16 -10 -187 -10
-187 0 0 5 -6 5 -12 1 -17 -10 -118 -11 -118 -1 0 4 -8 3 -18 -2 -13 -7 -23
-6 -30 1 -7 7 -12 8 -12 3 0 -6 -18 -10 -40 -10 -22 -1 -40 4 -40 10 0 7 -3 7
-8 0 -9 -14 -55 -13 -64 0 -5 6 -8 6 -8 -1 0 -7 -12 -10 -27 -7 -16 2 -32 4
-38 4 -8 -1 -66 -1 -155 -1 -8 0 -109 -1 -223 -3 -115 -1 -211 1 -213 5 -3 5
-11 5 -17 1 -19 -12 -77 -11 -77 1 0 7 -3 8 -8 1 -4 -6 -33 -10 -65 -10 -47
-1 -57 2 -52 15 4 13 4 13 -7 0 -12 -14 -83 -16 -608 -15 -337 0 -601 4 -609
9 -9 6 -12 5 -8 -1 4 -7 -21 -11 -75 -12 -90 -2 -100 -5 -96 -30 2 -10 -4 -26
-12 -36 -9 -11 -10 -16 -2 -11 8 5 12 0 12 -15 0 -19 -2 -20 -17 -8 -15 13
-15 12 -3 -8 8 -12 19 -19 25 -15 7 4 6 1 -1 -9 -12 -16 -16 -59 -5 -59 9 0 6
-48 -5 -74 -6 -15 -4 -17 6 -11 9 5 11 4 6 -4 -12 -19 -14 -61 -4 -67 4 -3 5
-11 1 -17 -11 -16 -11 -57 -1 -57 5 0 4 -8 -1 -18 -7 -13 -6 -23 2 -32 10 -10
8 -12 -7 -6 -17 6 -18 5 -3 -18 19 -28 10 -44 -10 -18 -12 16 -13 16 -6 -2 4
-13 3 -17 -5 -12 -6 3 -13 2 -16 -3 -4 -5 2 -8 11 -6 26 4 36 -5 22 -21 -6 -8
-9 -17 -5 -21 3 -3 6 -1 6 5 0 7 5 12 10 12 7 0 7 -6 0 -19 -13 -25 -13 -34 1
-25 6 3 3 -5 -6 -20 -10 -15 -15 -29 -11 -33 3 -3 6 -1 6 6 0 7 5 9 11 6 7 -5
5 -13 -6 -25 -12 -14 -13 -20 -4 -26 8 -5 10 -3 4 6 -5 9 -4 11 4 6 9 -6 9
-11 0 -22 -6 -8 -8 -14 -3 -14 5 0 9 -11 9 -24 0 -13 -3 -22 -6 -20 -4 2 -10
-3 -13 -12 -3 -8 -2 -13 3 -10 5 3 11 -5 13 -19 3 -13 0 -26 -6 -29 -7 -3 -6
-8 3 -14 11 -8 11 -10 0 -15 -12 -5 -12 -7 0 -15 10 -7 10 -11 1 -14 -10 -3
-10 -9 -2 -25 9 -16 8 -24 -4 -34 -9 -8 -11 -16 -5 -22 5 -5 7 -16 4 -23 -3
-8 -1 -14 5 -14 12 0 11 -32 -2 -41 -4 -4 -3 -15 2 -26 6 -11 7 -25 2 -33 -5
-8 -6 -19 -2 -25 11 -17 8 -39 -8 -53 -8 -7 -10 -12 -5 -11 22 3 29 -2 15 -11
-11 -7 -12 -12 -4 -20 13 -13 7 -53 -6 -45 -5 3 -12 0 -16 -6 -4 -7 -3 -9 2
-6 6 3 16 2 24 -4 12 -7 11 -9 -5 -9 -16 0 -17 -2 -6 -9 10 -6 14 -32 15 -84
1 -41 -2 -73 -6 -70 -5 2 -8 0 -8 -6 0 -5 4 -12 10 -16 5 -3 6 -13 3 -22 -6
-15 -7 -14 -14 3 -6 16 -8 16 -8 2 -1 -9 7 -22 17 -28 14 -10 13 -11 -8 -6
-24 5 -24 4 -6 -9 11 -8 21 -23 22 -33 2 -15 1 -15 -12 2 -8 11 -14 15 -14 9
0 -7 6 -18 13 -25 14 -15 15 -37 4 -55 -5 -7 -4 -13 2 -13 5 0 9 -9 8 -20 -1
-11 -5 -20 -9 -20 -4 0 -8 -5 -8 -11 0 -5 4 -8 8 -5 4 2 7 -11 7 -30 0 -34 -9
-45 -18 -21 -4 8 -6 9 -6 0 -1 -6 6 -18 14 -27 14 -14 14 -17 -5 -36 -11 -11
-20 -23 -20 -27 0 -4 5 -2 12 5 7 7 16 12 22 12 6 0 5 -5 -2 -12 -13 -13 -16
-32 -4 -24 4 2 8 -11 8 -30 0 -35 -4 -40 -22 -27 -5 5 -1 0 9 -9 11 -10 14
-18 8 -18 -6 0 -11 -5 -11 -11 0 -6 6 -7 12 -2 7 4 5 -5 -5 -20 -12 -18 -13
-25 -4 -21 8 3 14 -2 14 -10 0 -8 -4 -13 -9 -10 -4 3 -8 0 -8 -5 0 -6 4 -11 8
-11 17 0 6 -63 -13 -77 -20 -15 -20 -15 1 -9 16 5 20 2 20 -19 0 -14 -4 -25
-8 -25 -4 0 -8 -5 -8 -11 0 -5 4 -8 8 -5 4 2 8 -9 7 -25 0 -19 -5 -29 -15 -30
-10 0 -8 -3 5 -9 13 -6 15 -9 5 -9 -13 -1 -13 -2 0 -11 10 -6 11 -10 3 -10 -7
0 -13 -5 -13 -11 0 -5 4 -8 8 -5 4 2 8 -30 7 -72 0 -64 -3 -80 -20 -95 -20
-18 -20 -18 1 -8 16 8 21 7 21 -5 0 -7 -7 -14 -16 -14 -14 0 -14 -2 -1 -10 15
-9 23 -60 8 -60 -4 0 -8 -5 -8 -11 0 -5 3 -8 8 -5 4 2 7 -36 7 -84 1 -49 -3
-86 -7 -84 -4 3 -8 0 -8 -5 0 -6 3 -11 8 -11 4 0 7 -30 7 -66 0 -57 -2 -65
-17 -60 -10 2 -16 0 -12 -5 3 -5 11 -9 18 -9 7 0 13 -7 13 -15 0 -8 -4 -15 -9
-15 -4 0 -8 -5 -8 -11 0 -5 4 -8 9 -5 5 3 8 -5 8 -18 0 -16 -4 -23 -12 -20 -7
3 -16 1 -19 -4 -3 -5 2 -9 11 -8 10 0 17 -7 18 -22 1 -17 -2 -21 -14 -17 -13
4 -12 2 2 -9 9 -7 17 -23 17 -35 0 -12 9 -41 20 -63 21 -44 26 -63 10 -38 -8
13 -10 13 -10 -2 0 -9 9 -20 20 -23 18 -6 22 -12 19 -31 0 -4 5 -11 13 -16 10
-8 10 -9 -2 -5 -8 2 -15 9 -15 15 0 5 -4 14 -8 18 -5 5 -7 -5 -4 -21 3 -25 8
-30 29 -29 24 1 26 -2 23 -37 -1 -21 2 -36 6 -33 5 3 7 10 4 15 -4 5 -1 9 5 9
6 0 13 -7 16 -15 4 -8 13 -15 21 -15 8 0 11 -4 8 -10 -4 -6 1 -7 12 -3 15 5
16 3 5 -8 -15 -16 -16 -29 -1 -29 5 0 7 5 4 10 -11 18 14 11 25 -7 11 -17 11
-17 6 0 -3 11 -2 15 4 12 6 -3 10 -1 10 4 0 7 7 7 20 -1 24 -15 26 -25 5 -25
-8 0 -12 4 -9 9 3 4 0 8 -5 8 -6 0 -11 -7 -11 -16 0 -10 6 -14 15 -11 13 6 29
-8 30 -25 0 -3 4 -10 8 -15 5 -4 7 -3 5 4 -2 6 2 10 7 10 6 -1 9 -8 9 -14 -2
-19 4 -16 16 6 7 14 7 22 -2 27 -7 5 -8 3 -3 -6 6 -9 4 -11 -4 -6 -14 9 -7 19
14 22 8 1 13 -2 9 -7 -3 -5 0 -9 5 -9 6 0 11 6 11 13 0 6 5 4 11 -5 5 -10 15
-18 20 -18 6 0 8 4 4 9 -3 5 0 13 6 17 7 4 9 3 5 -4 -3 -6 -2 -13 3 -16 5 -4
11 -1 14 6 2 8 3 7 3 -2 -1 -8 -8 -15 -15 -15 -8 0 -16 -7 -18 -15 -4 -13 -3
-13 6 0 10 13 11 13 11 0 0 -10 3 -11 8 -4 8 13 37 12 65 -1 11 -4 23 -3 30 4
16 16 32 14 18 -3 -8 -10 -9 -16 -1 -21 6 -4 9 -1 8 5 -2 7 4 14 12 15 8 2 22
6 32 10 11 4 18 1 21 -12 4 -17 5 -17 6 0 1 11 6 15 13 11 6 -4 8 -3 4 4 -3 6
-2 13 4 17 6 4 7 11 4 17 -4 6 -3 8 3 5 5 -3 9 -16 7 -29 -1 -13 -3 -27 -3
-31 -1 -5 -6 -5 -13 -1 -7 4 -8 3 -4 -4 8 -14 36 -4 33 11 -1 7 4 11 11 10 6
-2 12 2 12 8 0 6 -7 9 -15 5 -12 -4 -13 -2 -2 15 10 16 13 17 15 4 2 -8 7 -13
12 -10 5 3 12 0 16 -6 4 -7 3 -9 -2 -6 -6 3 -11 -4 -11 -15 -2 -19 -1 -19 11
-3 9 13 15 15 20 6 4 -6 13 -8 19 -4 17 11 51 10 58 0 4 -6 13 -6 20 -1 8 5
25 10 39 12 13 2 30 8 38 14 9 8 16 8 25 -2 7 -7 7 -10 2 -7 -6 3 -19 -1 -30
-9 -10 -8 -14 -14 -9 -14 6 0 14 3 18 7 12 12 56 14 56 3 0 -6 4 -9 9 -6 5 4
11 1 13 -6 2 -6 12 -12 21 -14 9 -1 15 2 11 7 -3 5 -10 7 -15 4 -5 -4 -9 -2
-9 3 0 16 13 22 25 12 8 -7 12 -5 12 5 0 8 -3 12 -7 10 -3 -2 -6 6 -7 18 0 12
1 16 4 9 3 -6 10 -9 15 -6 7 4 8 2 4 -4 -5 -8 1 -12 15 -12 17 0 19 3 10 13
-8 10 -7 14 3 14 15 0 16 -14 3 -34 -6 -9 -3 -11 9 -6 10 4 15 2 11 -4 -3 -5
0 -10 8 -10 8 0 12 4 9 9 -10 16 9 8 22 -9 13 -17 14 -17 7 2 -6 17 -4 18 8 8
16 -13 61 -14 53 -1 -3 4 1 8 10 8 8 0 17 -6 19 -12 4 -10 6 -10 6 0 1 6 6 12
12 12 5 0 7 -5 4 -10 -4 -6 -1 -9 7 -8 7 2 12 -4 10 -12 -2 -8 0 -12 4 -7 12
12 15 47 3 47 -5 0 -7 -5 -3 -12 4 -7 3 -8 -5 -4 -9 6 -9 11 0 22 10 12 13 12
24 -2 11 -15 13 -15 28 7 21 29 22 18 2 -21 -14 -27 -14 -29 0 -23 9 3 13 8
11 11 -8 7 14 32 27 32 7 0 7 -4 -1 -12 -15 -15 -15 -28 -1 -28 5 0 7 5 4 10
-8 13 11 13 38 -1 16 -9 22 -9 25 0 2 6 8 11 13 11 6 0 8 -4 5 -8 -3 -5 1 -9
9 -9 10 0 11 4 6 11 -6 7 -2 20 11 36 l20 25 -14 -25 c-14 -23 -13 -27 7 -48
16 -17 22 -19 22 -8 0 8 -4 13 -9 10 -4 -3 -8 -1 -8 5 0 5 9 13 20 16 11 4 18
10 15 15 -3 5 -1 11 4 14 16 11 22 -11 6 -24 -8 -7 -15 -16 -15 -21 0 -5 11 1
25 13 13 11 22 24 20 28 -3 5 2 11 11 14 13 5 12 -1 -5 -30 -12 -20 -19 -39
-16 -42 3 -3 5 0 5 7 0 7 5 9 13 5 6 -4 9 -4 5 1 -9 9 9 35 24 35 6 0 5 -7 -2
-15 -7 -9 -10 -18 -6 -22 3 -3 6 -1 6 5 0 7 5 12 11 12 5 0 8 -4 5 -8 -3 -5 1
-9 9 -9 10 0 11 5 6 16 -6 10 -4 21 6 30 13 12 14 11 8 -7 -5 -17 -3 -21 9
-16 8 3 12 13 9 22 -4 14 -3 15 6 2 7 -11 6 -19 -6 -32 -10 -11 -12 -18 -5
-18 7 0 12 4 12 9 0 10 50 9 68 -2 7 -5 12 -3 12 5 0 11 2 10 9 0 6 -11 10
-10 15 5 7 17 8 17 21 0 10 -14 14 -15 18 -5 4 10 8 10 16 -2 6 -8 11 -10 11
-5 0 6 -6 17 -12 24 -11 10 -9 11 7 5 17 -7 18 -6 7 8 -9 11 -10 18 -2 23 6 4
9 1 8 -6 -2 -7 5 -15 16 -17 10 -2 16 0 13 5 -3 5 4 10 16 10 16 2 18 0 8 -7
-19 -11 -22 -37 -7 -49 9 -8 13 -6 13 7 0 9 -5 20 -11 24 -7 5 -5 8 6 8 9 0
19 6 22 13 3 6 3 2 0 -10 -4 -19 -2 -22 13 -17 17 5 17 5 0 -9 -16 -13 -14
-15 22 -13 21 0 37 5 33 10 -3 5 1 7 10 4 8 -4 15 0 15 7 0 11 -6 11 -30 -1
-16 -9 -31 -13 -35 -10 -3 3 -2 6 3 6 4 0 1 8 -6 17 -12 14 -12 16 0 8 11 -6
13 -4 8 9 -4 11 -3 15 4 11 6 -4 8 -13 5 -21 -3 -8 1 -14 10 -14 8 0 12 4 9
10 -3 6 1 7 9 4 10 -4 16 -1 16 7 0 11 3 11 10 -1 9 -13 10 -13 10 0 1 12 3
11 11 -2 5 -10 15 -18 21 -18 6 0 5 7 -3 17 -13 15 -12 15 12 -1 25 -15 28
-16 43 -1 9 9 16 12 16 6 0 -11 -39 -41 -53 -41 -4 0 -5 5 -1 11 4 7 -1 7 -16
-1 -13 -7 -20 -8 -16 -2 3 6 1 14 -5 17 -7 5 -10 1 -7 -11 2 -14 13 -18 45
-19 23 0 40 2 38 5 -2 4 10 15 28 25 l32 18 -19 -22 c-19 -21 -19 -21 -1 -15
11 5 16 4 12 -3 -3 -5 0 -10 8 -10 11 0 12 4 4 14 -9 9 -8 13 0 13 7 0 9 5 5
12 -5 7 -3 8 6 3 10 -6 12 -4 7 9 -4 10 -3 15 3 11 13 -8 13 -32 0 -37 -6 -2
-6 -8 0 -18 8 -13 10 -13 10 1 0 22 26 44 35 29 3 -5 11 -10 17 -10 6 0 5 7
-3 18 -11 14 -11 15 1 5 18 -17 35 -17 22 0 -8 10 -6 13 7 13 13 0 17 -5 13
-16 -5 -13 -4 -13 14 0 18 14 18 14 5 -2 -7 -10 -16 -16 -20 -14 -3 2 -17 -2
-31 -11 -14 -8 -17 -12 -7 -9 9 3 17 0 18 -7 0 -7 4 -3 9 8 7 19 8 19 15 2 7
-16 10 -14 26 12 11 19 25 29 38 28 25 -2 27 -12 5 -21 -8 -3 -12 -2 -9 4 3 6
2 10 -4 10 -18 0 -23 -20 -7 -26 9 -3 14 -9 11 -13 -2 -4 2 -8 10 -8 12 0 12
3 2 16 -10 12 -9 14 6 8 16 -6 22 3 18 27 -1 5 5 4 13 -4 12 -9 16 -9 16 -1 0
7 4 10 9 7 5 -4 12 0 14 6 4 10 6 10 6 1 1 -14 -33 -35 -43 -26 -3 3 -6 -1 -6
-10 0 -9 5 -19 12 -23 7 -4 8 -3 4 4 -4 7 -3 12 3 12 5 0 11 -3 14 -7 2 -5 3
-3 2 2 -1 6 7 18 17 28 10 9 18 12 18 7 0 -7 7 -7 21 1 17 9 20 8 14 -2 -6 -9
-3 -11 8 -6 11 4 14 2 11 -8 -3 -8 -9 -14 -12 -13 -29 3 -39 -19 -18 -39 4 -4
7 -3 6 2 -5 21 0 36 9 30 5 -3 12 -1 16 5 3 5 11 10 17 10 6 0 3 -10 -8 -22
-12 -14 -13 -18 -3 -10 9 6 20 8 24 4 5 -4 5 -1 1 6 -9 15 10 16 19 2 5 -8 11
-8 20 0 10 8 16 7 24 -7 6 -11 11 -13 11 -5 0 7 5 10 12 6 6 -4 8 -3 4 4 -3 6
-2 13 4 17 6 4 8 11 4 16 -3 5 -10 7 -15 3 -5 -3 -7 -9 -4 -14 3 -5 1 -11 -5
-15 -5 -3 -10 -2 -10 3 0 6 -7 12 -15 16 -8 3 -14 2 -14 -2 3 -20 -3 -22 -17
-7 -14 13 -14 19 -4 28 10 9 11 9 6 0 -4 -7 -3 -13 3 -13 5 0 12 6 14 13 4 9
6 9 6 0 1 -7 8 -13 17 -13 14 0 15 2 3 18 -12 15 -12 16 1 6 8 -6 23 -10 33
-9 10 2 14 -1 11 -7 -4 -6 -1 -8 7 -6 8 3 13 11 11 17 -1 7 2 10 8 6 8 -5 8
-11 1 -19 -6 -7 -7 -16 -3 -20 4 -4 1 -6 -7 -4 -7 2 -15 -3 -17 -10 -1 -7 0
-8 3 -2 3 7 10 4 19 -7 13 -17 14 -17 7 2 -6 18 -5 19 13 5 18 -14 18 -14 5 3
-17 22 -3 41 19 26 12 -9 12 -10 -3 -5 -11 3 -16 2 -12 -5 4 -5 16 -7 28 -3
20 6 20 5 8 -10 -8 -9 -11 -19 -7 -23 3 -3 6 -1 6 6 0 7 5 9 10 6 6 -4 7 -11
4 -17 -4 -7 -2 -8 5 -4 9 6 9 11 -1 24 -11 13 -10 15 10 10 12 -4 20 -2 16 3
-3 5 2 9 11 9 9 0 14 4 10 9 -3 5 0 13 6 17 8 4 9 3 5 -4 -4 -7 -3 -12 3 -12
5 0 11 6 14 13 3 6 4 2 4 -10 -1 -12 -5 -21 -10 -20 -5 1 -11 -4 -13 -11 -1
-7 0 -8 3 -2 3 7 10 4 19 -7 13 -17 14 -17 7 1 -4 12 -3 17 4 13 6 -4 9 5 8
22 -1 19 3 27 10 25 6 -3 12 -11 12 -19 0 -8 -5 -11 -11 -8 -7 4 -6 1 1 -8 6
-8 11 -18 11 -22 0 -5 3 -12 7 -15 4 -4 5 -1 3 7 -2 7 3 16 11 19 9 3 11 0 6
-8 -5 -9 -4 -11 4 -6 6 4 9 11 6 16 -3 5 4 11 15 15 11 4 18 10 16 14 -3 4 4
7 14 7 10 0 16 -5 13 -10 -4 -5 1 -7 10 -3 9 3 19 1 23 -6 4 -7 4 -9 -1 -5 -9
9 -35 -9 -35 -23 0 -5 5 -9 11 -9 5 0 7 5 3 12 -5 8 0 9 14 6 12 -4 20 -2 16
3 -9 16 14 10 32 -9 17 -16 18 -16 11 1 -5 13 -3 17 5 14 7 -2 12 -10 11 -16
-5 -20 15 -11 22 10 4 11 9 18 12 15 4 -3 12 -1 19 5 8 7 14 7 19 -1 3 -5 11
-10 17 -10 6 0 3 10 -8 22 -12 14 -13 18 -3 10 9 -6 20 -8 24 -4 5 4 5 2 2 -4
-4 -7 5 -11 24 -11 23 0 29 4 24 16 -3 11 0 10 10 -3 9 -12 15 -15 15 -7 0 9
4 10 13 4 18 -14 52 -10 49 5 -2 10 2 10 20 0 32 -17 61 -21 52 -6 -4 6 -3 8
4 4 5 -3 12 0 15 6 3 7 4 3 4 -9 -1 -12 -4 -21 -7 -21 -28 2 -32 -3 -17 -20
10 -10 14 -22 10 -27 -5 -4 -2 -5 5 0 10 5 11 10 3 18 -16 16 -14 23 8 24 14
1 18 -3 14 -15 -4 -13 -3 -14 5 -3 5 7 14 11 19 8 5 -3 10 0 10 7 0 7 -7 13
-15 12 -8 0 -16 5 -18 12 -1 7 0 8 3 2 2 -5 9 -10 14 -10 6 0 7 6 3 13 -5 8
-2 8 9 -2 13 -11 20 -11 32 -1 8 6 19 9 25 5 5 -3 10 -1 10 6 0 7 3 9 6 6 4
-4 1 -13 -6 -22 -8 -9 -8 -15 -2 -15 6 0 13 4 17 10 3 5 13 6 22 3 12 -5 14
-3 8 7 -5 8 -4 11 3 6 5 -3 12 -3 15 1 2 5 2 2 1 -5 -2 -6 1 -12 6 -12 6 0 10
6 10 13 0 8 4 7 10 -3 9 -13 12 -12 25 4 8 11 15 14 15 7 0 -7 4 -9 10 -6 6 3
10 2 10 -4 0 -5 14 -9 31 -9 29 1 30 2 14 15 -11 7 -14 13 -8 13 6 0 16 -7 23
-15 7 -8 17 -12 22 -9 6 4 5 10 -3 15 -11 7 -10 9 5 9 11 0 16 -5 13 -14 -3
-7 7 -23 24 -35 16 -12 27 -27 23 -33 -4 -7 -2 -8 5 -4 9 6 9 11 -1 24 -11 14
-10 15 6 9 22 -8 56 17 57 42 0 11 2 12 6 3 3 -7 -3 -25 -13 -40 -17 -27 -17
-27 3 -10 27 24 36 22 23 -5 -11 -21 -10 -21 4 -3 12 15 13 23 4 33 -6 7 -8
16 -4 20 3 3 6 1 6 -5 0 -7 4 -12 10 -12 5 0 7 8 4 18 -5 14 -4 15 5 2 6 -8
11 -11 11 -6 0 5 6 3 14 -3 11 -10 17 -8 26 6 9 15 11 15 6 1 -2 -9 4 -26 15
-39 10 -12 19 -27 19 -32 0 -6 3 -8 6 -5 3 4 -2 20 -11 38 -9 18 -14 34 -11
38 3 3 6 -1 6 -9 0 -12 2 -11 11 1 9 13 10 13 6 -2 -3 -9 3 -24 13 -33 11 -10
17 -22 13 -28 -3 -6 -1 -7 6 -3 9 6 9 11 0 22 -16 19 1 18 31 -3 14 -9 22 -13
18 -8 -8 9 9 35 23 35 4 0 6 -9 4 -20 -2 -11 1 -23 7 -26 6 -4 8 -3 5 3 -9 14
19 37 32 28 7 -3 8 0 5 10 -5 11 -10 13 -19 5 -9 -7 -15 -7 -19 -1 -4 5 -1 13
5 17 8 4 7 9 -2 15 -11 7 -11 9 -1 9 7 0 26 -15 43 -32 17 -18 28 -28 25 -21
-3 6 -2 22 3 35 10 23 10 23 10 -4 1 -32 3 -33 39 -15 15 8 39 13 54 12 15 -1
29 4 32 12 3 7 11 13 18 13 10 0 10 -2 -1 -9 -8 -5 -9 -11 -3 -15 5 -3 15 1
22 9 11 13 16 13 41 0 35 -19 63 -20 53 -2 -6 9 -4 9 8 -1 14 -11 18 -10 27 5
10 17 10 17 11 1 0 -21 4 -22 31 -8 13 8 24 8 37 0 14 -9 13 -10 -8 -6 -14 3
-19 3 -13 0 9 -4 10 -11 4 -23 -6 -11 -6 -22 1 -32 8 -12 9 -11 5 2 -3 9 -1
22 4 30 7 11 12 12 28 2 19 -12 31 -8 31 11 0 6 -4 5 -9 -3 -7 -11 -10 -9 -16
8 -4 13 -4 25 -1 28 3 4 6 0 6 -8 0 -8 9 -15 20 -16 11 -1 18 2 15 8 -4 5 -2
9 3 9 6 0 13 -7 16 -16 3 -8 2 -13 -2 -10 -4 3 -13 -4 -20 -15 -7 -11 -8 -19
-2 -19 5 0 10 4 10 9 0 5 9 13 21 16 11 4 18 9 15 12 -8 8 13 33 27 33 6 0 2
-6 -8 -14 -18 -13 -17 -13 8 -13 14 0 25 4 24 9 -1 6 4 12 11 13 7 2 8 1 2 -2
-5 -2 -7 -9 -4 -14 4 -6 11 -6 19 1 10 8 15 8 20 0 5 -8 13 -6 27 7 11 9 18
13 16 8 -2 -6 10 -24 26 -40 l29 -30 -23 33 c-12 18 -19 36 -16 39 3 4 6 1 6
-6 0 -7 5 -9 12 -5 6 4 8 3 5 -3 -10 -16 26 -44 42 -33 8 4 21 6 30 3 11 -4 9
0 -4 10 -18 14 -18 16 -2 13 10 -1 22 -8 26 -15 6 -10 10 -8 15 5 3 9 4 19 1
22 -3 3 -5 0 -5 -8 0 -9 -3 -10 -13 -1 -8 6 -17 8 -20 4 -4 -3 -7 -2 -7 3 0 5
10 15 23 23 20 13 21 13 8 -2 -19 -24 -1 -21 25 4 l23 21 21 -33 c17 -27 20
-29 14 -9 -6 22 -5 23 10 11 10 -9 16 -10 16 -2 0 6 -4 11 -10 11 -5 0 -10 5
-10 10 0 6 9 10 21 10 13 0 18 -4 13 -13 -5 -8 -2 -8 9 2 24 19 21 32 -6 27
-16 -3 -24 1 -24 10 0 10 4 11 14 3 13 -11 14 -10 17 14 0 6 7 13 14 13 6 1
17 2 23 3 5 0 8 5 5 9 -3 5 7 22 23 39 15 17 33 45 41 62 7 17 17 34 22 37 6
4 5 -3 -1 -15 -7 -12 -9 -27 -5 -33 5 -7 2 -8 -7 -3 -8 5 -11 5 -7 0 4 -4 3
-14 -3 -21 -7 -8 -7 -14 1 -19 10 -6 11 -5 14 18 1 6 10 11 21 9 19 -2 19 -2
2 8 -9 6 -15 16 -11 21 3 5 7 24 9 42 5 45 10 65 17 73 4 3 4 12 2 19 -3 7 0
16 6 20 9 6 9 9 0 15 -10 6 -8 11 7 20 20 13 20 13 0 33 -20 20 -20 20 4 34
13 8 16 12 7 9 -19 -6 -35 10 -17 16 9 3 9 9 1 24 -6 12 -7 26 -2 34 6 9 4 18
-3 23 -7 5 -3 7 12 3 l23 -5 -21 21 c-12 11 -20 23 -16 26 3 4 10 0 15 -8 6
-8 10 -10 10 -4 0 5 -5 15 -12 22 -12 12 -18 123 -6 115 5 -2 8 0 8 6 0 5 -5
13 -10 16 -7 4 -7 12 0 25 7 13 6 20 -3 24 -6 4 -1 4 13 2 l25 -5 -22 16 -23
15 21 29 c11 16 16 29 10 29 -6 0 -11 -4 -11 -10 0 -5 -4 -10 -8 -10 -12 0 -8
35 5 52 15 20 24 50 13 43 -6 -3 -10 -13 -10 -21 0 -8 -4 -14 -9 -14 -6 0 -9
9 -8 20 1 11 5 20 9 20 4 0 8 5 8 11 0 5 -4 8 -8 5 -4 -2 -8 7 -8 20 l0 25 19
-23 c16 -20 16 -18 -2 15 -12 21 -17 35 -11 32 13 -8 13 8 -1 22 -8 8 -8 13 0
17 6 4 11 12 11 17 0 6 -4 8 -9 5 -5 -3 -8 2 -7 12 0 9 8 20 16 24 13 6 13 7
0 7 -18 1 -23 51 -5 51 5 0 3 5 -5 10 -10 6 -11 10 -2 10 6 0 12 5 12 11 0 5
-4 8 -8 5 -9 -5 -8 41 1 51 10 9 9 25 -1 19 -19 -11 -6 67 13 81 20 15 20 15
-1 9 -15 -5 -21 -2 -21 9 0 9 6 14 13 11 8 -3 11 0 7 9 -3 8 -8 13 -12 10 -4
-2 -7 13 -7 33 1 23 7 40 16 44 11 5 10 7 -5 7 -17 1 -17 3 -5 11 8 5 10 10 4
10 -6 0 -11 7 -11 15 0 8 4 15 9 15 4 0 8 5 8 11 0 5 -4 8 -8 5 -4 -2 -8 25
-8 62 1 54 5 70 21 85 20 18 20 18 0 9 -19 -9 -20 -7 -20 39 -1 27 3 49 7 49
4 0 8 5 8 11 0 5 -4 8 -8 5 -5 -3 -9 2 -9 10 0 9 6 13 16 9 15 -5 15 -4 0 7
-18 15 -21 48 -5 48 6 0 4 5 -4 10 -10 6 -11 10 -2 10 6 0 12 5 12 11 0 5 -3
8 -7 6 -5 -3 -8 57 -8 133 0 76 3 136 8 133 4 -2 7 1 7 6 0 6 -6 11 -12 11 -9
0 -8 4 2 10 8 5 10 10 5 10 -6 0 -10 16 -11 35 0 19 3 32 7 29 4 -2 11 1 15 7
4 7 3 9 -4 5 -6 -3 -13 -2 -17 4 -3 5 -1 10 4 10 6 0 11 5 11 11 0 5 -5 7 -11
4 -16 -10 -6 28 11 43 13 11 13 11 0 7 -11 -4 -16 2 -17 17 -2 18 0 20 7 8 8
-13 10 -12 10 3 0 9 -6 17 -12 17 -9 0 -8 4 2 10 13 9 13 10 0 10 -13 0 -13 1
0 10 8 5 10 10 4 10 -17 0 -11 54 6 62 12 5 12 7 -2 7 -21 1 -23 12 -5 30 10
11 10 13 0 7 -7 -4 -13 -3 -13 2 0 5 8 12 18 14 10 3 19 12 19 21 0 9 -4 14
-9 11 -5 -3 -6 -10 -3 -15 4 -5 0 -9 -8 -9 -9 0 -14 12 -14 35 0 28 4 35 16
30 13 -4 12 -2 -2 9 -19 15 -23 31 -4 20 7 -5 6 0 -3 11 -9 11 -10 16 -2 11 6
-4 12 -2 12 3 0 6 -4 11 -8 11 -4 0 -8 9 -9 20 -1 11 2 20 8 20 5 0 9 -4 9
-10 0 -5 5 -10 11 -10 8 0 9 4 0 13 -6 8 -8 17 -4 21 4 4 0 4 -10 0 -10 -3
-17 -1 -17 5 0 6 5 11 10 11 6 0 10 5 10 11 0 5 -4 8 -9 5 -5 -3 -9 5 -8 19 0
14 3 22 8 19 5 -3 9 0 9 5 0 6 -4 11 -8 11 -5 0 -9 20 -8 44 0 25 4 42 8 40 4
-3 8 -11 8 -19 0 -8 4 -16 10 -20 5 -3 5 7 -1 25 -6 16 -14 30 -18 30 -4 0 -8
7 -8 15 0 8 4 12 9 9 4 -3 8 0 8 6 0 6 4 9 8 6 5 -3 9 1 9 9 0 8 -4 15 -9 15
-4 0 -8 -5 -8 -11 0 -5 -5 -7 -10 -4 -8 5 -7 11 1 21 6 7 9 21 5 29 -4 12 0
14 22 10 22 -4 24 -4 7 4 -11 5 -16 10 -11 10 5 1 4 7 -1 14 -17 22 -22 46
-11 53 7 5 8 2 3 -6 -6 -9 -4 -11 4 -6 7 5 10 11 7 14 -3 3 -1 11 5 19 9 9 8
13 0 13 -6 0 -11 -4 -11 -10 0 -5 -4 -10 -9 -10 -6 0 -6 12 0 32 11 40 11 40
0 34 -9 -6 -4 54 5 63 2 2 -1 10 -7 18 -7 8 -8 13 -1 13 6 0 7 13 2 35 -7 29
-5 35 7 33 9 -2 18 4 20 12 3 11 2 11 -4 3 -6 -8 -14 -9 -23 -3 -11 7 -12 10
-2 10 8 0 10 5 5 13 -8 13 -5 55 5 72 4 6 8 19 9 30 2 16 1 17 -6 5 -5 -8 -7
-18 -5 -22 3 -4 2 -8 -3 -8 -10 0 -8 213 2 230 5 8 4 11 -3 6 -7 -4 -13 7 -18
29 -3 19 -10 35 -15 35 -5 0 -9 5 -9 11 0 5 -11 26 -25 46 -13 20 -21 41 -18
46 3 6 1 7 -4 4 -13 -8 -46 27 -36 37 4 4 0 4 -10 0 -9 -3 -17 -2 -17 4 0 10
-119 72 -139 72 -7 0 -9 6 -5 13 5 9 4 9 -6 0 -9 -9 -19 -9 -32 -2 -11 6 -27
12 -36 14 -15 4 -36 9 -117 31 -11 3 -24 6 -30 7 -5 2 -14 5 -20 8 -5 3 -36
12 -67 19 -33 7 -55 17 -51 23 3 6 2 7 -3 4 -11 -6 -147 27 -140 34 2 2 -8 5
-22 6 -37 2 -134 28 -128 33 2 3 -7 6 -20 6 -38 3 -75 14 -70 22 2 4 -8 8 -22
8 -31 1 -67 10 -82 19 -6 4 -23 9 -38 11 -15 3 -40 9 -57 14 -16 6 -64 19
-105 30 -41 12 -82 24 -90 27 -8 3 -26 8 -40 10 -13 2 -27 7 -30 11 -3 4 -16
7 -30 8 -16 0 -24 5 -22 15 3 11 1 11 -9 2 -7 -7 -18 -8 -28 -3 -9 5 -29 12
-46 16 -16 4 -33 8 -37 9 -5 2 -15 3 -24 4 -8 0 -12 5 -9 11 3 5 0 7 -8 4 -7
-2 -34 2 -58 9 -43 15 -96 28 -101 26 -2 0 -16 5 -33 11 -16 7 -39 13 -49 16
-17 3 -63 16 -106 30 -8 3 -16 5 -17 5 -2 0 -33 9 -70 20 -38 11 -75 22 -83
24 -87 22 -138 37 -150 42 -20 8 -20 8 -55 17 -16 4 -37 10 -45 13 -8 3 -21 7
-29 9 -8 1 -26 6 -40 10 -14 4 -29 8 -33 9 -5 2 -15 3 -24 4 -8 0 -13 5 -10 9
3 4 -8 7 -25 6 -16 -1 -29 2 -29 8 0 5 -4 7 -10 3 -5 -3 -17 -1 -27 4 -25 13
-57 24 -65 23 -4 -1 -20 3 -35 9 -15 6 -37 12 -48 14 -11 2 -29 6 -40 9 -11 3
-49 13 -85 22 -36 10 -68 21 -71 27 -3 5 -9 8 -13 7 -12 -4 -126 23 -126 29 0
4 -14 8 -32 9 -17 2 -36 6 -42 11 -6 4 -37 14 -68 21 -32 7 -58 16 -58 19 0 3
-14 6 -31 7 -16 1 -40 6 -52 11 -18 9 -229 71 -299 89 -10 2 -28 7 -40 10 -13
3 -35 8 -50 11 -16 3 -28 8 -28 12 0 6 -17 10 -57 13 -7 1 -13 5 -13 10 0 5
-4 6 -10 3 -5 -3 -16 -3 -22 2 -7 4 -17 8 -23 10 -106 23 -136 34 -128 46 4 7
0 7 -10 -2 -11 -9 -17 -10 -17 -2 0 6 -3 10 -7 9 -13 -4 -133 24 -133 31 0 4
-14 8 -32 9 -17 2 -38 8 -45 14 -7 6 -13 8 -13 4 0 -3 -16 0 -35 8 -19 8 -35
13 -35 11 0 -2 -18 2 -40 10 -22 8 -40 12 -40 8 0 -3 -7 0 -15 7 -8 7 -15 10
-15 6 0 -3 -11 -1 -24 4 -13 5 -43 12 -67 15 -24 4 -46 8 -49 9 -3 1 -21 0
-41 -4z m-199 -600 c0 -5 -4 -10 -10 -10 -5 0 -10 5 -10 10 0 6 5 10 10 10 6
0 10 -4 10 -10z m5 -30 c3 -6 -1 -7 -9 -4 -18 7 -21 14 -7 14 6 0 13 -4 16
-10z m255 -52 c0 -6 7 -5 17 3 9 8 14 10 11 4 -5 -8 8 -27 25 -38 2 -1 12 5
22 13 11 9 16 10 11 3 -4 -7 -3 -13 3 -13 5 0 12 6 15 13 3 6 3 1 -1 -13 -5
-23 -5 -24 12 -10 11 8 16 10 12 3 -4 -6 -1 -14 5 -17 7 -2 4 -4 -7 -3 -11 2
-24 5 -30 8 -5 4 -20 5 -32 4 -12 -1 -25 5 -28 12 -2 8 -9 12 -14 9 -5 -3 -14
1 -21 9 -6 7 -18 11 -26 8 -8 -3 -14 -1 -14 4 0 5 9 9 20 10 11 1 20 -3 20 -9z
m390 -98 c0 -5 -5 -10 -11 -10 -5 0 -7 5 -4 10 3 6 8 10 11 10 2 0 4 -4 4 -10z
m127 -27 c-4 -3 -2 -12 4 -19 7 -8 6 -14 -2 -20 -8 -4 -9 -3 -5 5 4 6 0 14 -9
17 -13 6 -14 8 -3 15 16 10 24 12 15 2z m338 -103 c-3 -5 -12 -10 -18 -10 -7
0 -6 4 3 10 19 12 23 12 15 0z m139 -55 c3 -8 11 -15 17 -15 8 0 7 6 -2 18
-13 16 -13 16 6 2 45 -34 49 -41 20 -36 -15 3 -32 9 -38 14 -7 5 -20 8 -30 7
-15 -3 -16 -1 -6 11 15 18 25 18 33 -1z m621 -155 c3 -5 1 -10 -4 -10 -6 0
-11 5 -11 10 0 6 2 10 4 10 3 0 8 -4 11 -10z m95 -40 c-14 -9 -7 -14 13 -11 5
1 6 -3 2 -9 -5 -8 -11 -8 -20 0 -10 8 -14 7 -18 -2 -4 -9 -6 -7 -6 4 -1 15 12
26 34 27 6 0 3 -4 -5 -9z m75 -19 c-3 -5 -1 -12 5 -16 5 -3 10 -1 10 4 0 6 5
11 12 11 9 0 9 -3 0 -12 -18 -18 -40 -18 -37 1 5 22 4 21 11 21 3 0 3 -4 -1
-9z m195 -51 c0 -5 -4 -10 -10 -10 -5 0 -10 5 -10 10 0 6 5 10 10 10 6 0 10
-4 10 -10z m39 -7 c-1 -5 -1 -15 0 -23 1 -13 2 -13 12 0 9 13 10 13 6 0 -2 -8
-8 -15 -13 -15 -5 0 -16 -4 -24 -10 -13 -8 -13 -7 0 10 12 15 13 19 1 23 -11
4 -11 6 0 13 17 11 19 11 18 2z m104 -55 c-11 -12 -20 -15 -28 -8 -6 5 -16 6
-21 2 -4 -4 -3 0 3 9 7 8 23 15 37 15 24 0 24 -1 9 -18z m247 -72 c0 5 -3 14
-7 20 -5 5 -1 1 9 -8 12 -13 18 -15 21 -6 4 8 6 9 6 2 2 -21 -27 -38 -42 -25
-8 6 -18 7 -22 3 -5 -4 -5 -1 -1 5 4 7 2 23 -4 35 -9 17 -5 15 14 -7 14 -16
25 -25 26 -19z m60 4 c0 -5 -5 -10 -11 -10 -5 0 -7 5 -4 10 3 6 8 10 11 10 2
0 4 -4 4 -10z m30 -34 c-15 -15 -33 4 -19 20 10 12 14 12 20 2 5 -7 4 -17 -1
-22z m433 -99 c8 5 8 2 0 -9 -7 -8 -11 -18 -8 -21 3 -4 2 -5 -2 -2 -4 3 -8 16
-9 28 -2 12 0 16 2 9 3 -6 11 -9 17 -5z m60 -28 c4 9 5 8 3 0 -2 -14 -44 -20
-52 -7 -3 4 1 14 8 22 11 12 15 11 24 -7 7 -13 13 -16 17 -8z m37 1 c0 -5 -5
-10 -11 -10 -5 0 -7 5 -4 10 3 6 8 10 11 10 2 0 4 -4 4 -10z m30 -18 c0 -13
-12 -22 -22 -16 -10 6 -1 24 13 24 5 0 9 -4 9 -8z m570 -156 c-7 -7 -13 -7
-20 0 -6 6 -3 10 10 10 13 0 16 -4 10 -10z m10 -20 c-6 -9 -19 -12 -28 -8 -17
6 -14 7 37 21 2 1 -2 -5 -9 -13z m44 -12 c5 -13 4 -14 -7 -6 -8 7 -18 8 -22 4
-5 -4 -5 -1 -1 6 10 17 23 15 30 -4z m95 -32 c14 -11 13 -11 -6 -2 -13 6 -23
18 -22 28 0 14 2 14 6 2 4 -8 13 -21 22 -28z m321 -66 c0 -3 -4 -8 -10 -11 -5
-3 -10 -1 -10 4 0 6 5 11 10 11 6 0 10 -2 10 -4z m20 -16 c0 -5 -5 -10 -11
-10 -5 0 -7 5 -4 10 3 6 8 10 11 10 2 0 4 -4 4 -10z m11 -34 c5 3 9 0 9 -6 0
-15 -23 -7 -26 8 -1 7 0 8 3 2 2 -5 9 -8 14 -4z m-4551 -3346 c0 -5 -5 -10
-11 -10 -5 0 -7 5 -4 10 3 6 8 10 11 10 2 0 4 -4 4 -10z m40 -25 c0 -12 -19
-12 -23 0 -4 9 -1 12 9 8 7 -3 14 -7 14 -8z m50 -35 c0 -5 -5 -10 -11 -10 -5
0 -7 5 -4 10 3 6 8 10 11 10 2 0 4 -4 4 -10z m4842 -15 c-8 -16 -9 -16 -15 -1
-4 10 -3 15 3 11 6 -3 10 -1 10 6 0 7 3 10 6 6 3 -3 2 -13 -4 -22z m-4768 -39
c-3 -9 -10 -13 -15 -10 -5 3 -3 11 4 19 15 16 19 13 11 -9z m4642 -1 c-1 -28
-22 -41 -30 -19 -3 8 -2 12 3 9 5 -3 12 4 16 15 9 27 13 25 11 -5z m-4489 -5
c1 -11 -2 -22 -8 -25 -7 -5 -7 18 0 43 3 8 7 -1 8 -18z m524 5 c11 2 15 -4 14
-19 -1 -11 -3 -22 -4 -24 -2 -4 -61 28 -61 33 0 2 8 1 18 -2 15 -6 16 -5 2 13
-13 17 -13 18 0 8 8 -6 22 -10 31 -9z m1572 0 c-3 -9 -8 -14 -10 -11 -3 3 -2
9 2 15 9 16 15 13 8 -4z m218 -15 c5 0 9 5 9 11 0 5 5 7 11 3 8 -5 6 -10 -5
-16 -20 -11 -36 -2 -35 20 1 15 2 15 6 0 2 -10 9 -18 14 -18z m274 10 c-3 -5
1 -11 7 -13 10 -4 10 -6 1 -6 -7 -1 -17 8 -23 19 -9 16 -8 18 5 14 8 -3 13
-10 10 -14z m57 -9 l-8 -22 -19 23 c-15 17 -16 19 -3 9 15 -11 19 -11 24 3 4
9 8 15 10 13 3 -2 1 -14 -4 -26z m762 -6 c-7 -16 -50 -13 -67 5 -9 10 -9 11 1
6 6 -4 12 -2 12 3 0 6 5 11 11 11 5 0 7 -5 3 -11 -4 -7 -1 -10 7 -7 8 3 13 11
11 18 -3 11 0 11 12 1 8 -7 12 -19 10 -26z m231 8 c19 0 32 4 29 9 -3 4 0 8 5
8 17 0 13 -15 -9 -35 -11 -10 -20 -14 -20 -8 0 6 -11 11 -25 12 -14 0 -25 3
-25 6 0 3 1 13 1 23 1 14 2 14 6 1 2 -10 15 -16 38 -16z m252 21 c-3 -3 -12
-4 -19 -1 -8 3 -5 6 6 6 11 1 17 -2 13 -5z m-3846 -18 c-7 -9 -8 -17 -3 -20 6
-3 12 1 16 9 3 9 12 12 22 8 13 -5 15 -3 9 7 -5 8 -4 11 3 6 6 -4 9 -13 5 -21
-4 -11 -1 -13 11 -9 9 3 13 11 9 17 -3 6 -1 7 6 3 6 -4 18 -2 26 4 11 9 15 9
15 1 0 -6 -5 -11 -11 -11 -5 0 -7 -5 -3 -12 4 -7 3 -8 -4 -4 -6 4 -20 2 -31
-3 -14 -8 -22 -7 -32 5 -11 14 -13 14 -21 0 -10 -18 -34 -21 -43 -7 -3 5 2 17
11 25 19 20 31 21 15 2z m323 -28 c-3 -5 -11 -5 -18 1 -7 6 -15 8 -18 5 -3 -2
-8 2 -11 10 -4 11 -1 13 10 9 12 -5 14 -3 8 8 -5 8 1 6 13 -5 12 -10 19 -23
16 -28z m21 32 c-3 -5 -1 -10 4 -10 6 0 11 5 11 12 0 6 3 8 6 5 4 -4 1 -14 -6
-22 -10 -12 -15 -13 -21 -3 -7 12 -3 28 7 28 3 0 2 -4 -1 -10z m48 -5 c-3 -9
-8 -14 -10 -11 -3 3 -2 9 2 15 9 16 15 13 8 -4z m282 -19 c8 3 11 13 8 22 -4
15 -3 15 6 2 15 -22 -13 -49 -37 -34 -9 6 -26 10 -38 9 -11 -1 -21 4 -21 11 0
7 7 10 15 6 11 -4 13 -2 7 9 -5 7 3 4 19 -8 15 -12 33 -20 41 -17z m-5 24 c0
-5 -5 -10 -11 -10 -5 0 -7 5 -4 10 3 6 8 10 11 10 2 0 4 -4 4 -10z m58 -2 c9
-9 12 -9 12 0 0 7 5 12 12 12 6 0 3 -8 -7 -20 -17 -18 -42 -19 -30 0 3 4 -1
11 -7 13 -7 3 -8 6 -2 6 5 1 15 -4 22 -11z m183 -8 c11 0 18 4 15 8 -3 5 2 9
10 9 11 0 9 -6 -7 -23 -17 -18 -26 -21 -40 -13 -12 6 -16 15 -12 26 4 11 8 13
11 5 2 -7 13 -12 23 -12z m86 5 c0 -8 -6 -16 -14 -19 -11 -4 -11 -1 -3 14 13
24 17 25 17 5z m246 0 c10 -4 17 -3 17 4 0 6 5 11 10 11 6 0 6 -7 -1 -18 -8
-12 -24 -18 -53 -18 -22 0 -35 1 -28 4 10 3 9 7 -4 16 -15 11 -13 13 12 11 16
-2 37 -6 47 -10z m1178 1 c5 3 9 3 9 0 0 -3 -9 -10 -19 -15 -17 -9 -18 -8 -13
11 3 13 7 17 10 10 2 -7 8 -10 13 -6z m1369 10 c0 -3 -4 -8 -10 -11 -5 -3 -10
-1 -10 4 0 6 5 11 10 11 6 0 10 -2 10 -4z m-3545 -20 c7 3 16 -1 21 -8 4 -7 4
-10 -1 -6 -4 4 -14 3 -21 -3 -9 -8 -16 -4 -25 13 -9 18 -9 21 1 11 7 -6 18 -9
25 -7z m1055 -2 c0 -8 -5 -12 -10 -9 -6 4 -8 11 -5 16 9 14 15 11 15 -7z"/>
<path d="M3246 4608 c3 -5 10 -6 15 -3 13 9 11 12 -6 12 -8 0 -12 -4 -9 -9z"/>
<path d="M1516 551 c-3 -5 1 -11 9 -14 9 -4 12 -1 8 9 -6 16 -10 17 -17 5z"/>
<path d="M2260 550 c8 -5 20 -10 25 -10 6 0 3 5 -5 10 -8 5 -19 10 -25 10 -5
0 -3 -5 5 -10z"/>
<path d="M675 5520 c-3 -5 -1 -10 4 -10 6 0 11 5 11 10 0 6 -2 10 -4 10 -3 0
-8 -4 -11 -10z"/>
<path d="M656 5362 c-2 -4 -1 -14 4 -22 7 -11 9 -9 7 8 -1 24 -3 26 -11 14z"/>
<path d="M770 5299 c0 -4 7 -10 16 -13 8 -3 13 -2 9 3 -3 5 1 11 7 14 7 3 3 4
-9 4 -13 -1 -23 -4 -23 -8z"/>
<path d="M825 5280 c-3 -5 -1 -10 4 -10 6 0 11 5 11 10 0 6 -2 10 -4 10 -3 0
-8 -4 -11 -10z"/>
<path d="M1027 5229 c13 -12 31 -15 30 -4 -1 5 -10 10 -20 10 -10 1 -14 -2
-10 -6z"/>
<path d="M935 5220 c3 -5 8 -10 11 -10 2 0 4 5 4 10 0 6 -5 10 -11 10 -5 0 -7
-4 -4 -10z"/>
<path d="M1010 5216 c0 -2 7 -9 15 -16 9 -7 15 -8 15 -2 0 5 -7 12 -15 16 -8
3 -15 4 -15 2z"/>
<path d="M1220 5146 c0 -2 7 -7 16 -10 8 -3 12 -2 9 4 -6 10 -25 14 -25 6z"/>
<path d="M1293 5125 c0 -7 6 -11 14 -8 7 3 13 6 13 8 0 2 -6 5 -13 8 -8 3 -14
-1 -14 -8z"/>
<path d="M1420 5136 c0 -3 10 -14 22 -25 16 -16 25 -18 35 -10 16 14 17 -3 1
-19 -9 -9 -9 -12 0 -12 7 0 13 5 14 10 4 28 2 35 -9 36 -7 1 -15 3 -18 4 -3 1
-8 3 -12 4 -5 1 -14 5 -20 9 -7 5 -13 6 -13 3z"/>
<path d="M1436 5087 c3 -10 9 -15 12 -12 3 3 0 11 -7 18 -10 9 -11 8 -5 -6z"/>
<path d="M1505 5080 c-3 -6 1 -7 9 -4 18 7 21 14 7 14 -6 0 -13 -4 -16 -10z"/>
<path d="M1630 5045 c0 -8 4 -15 10 -15 5 0 7 7 4 15 -4 8 -8 15 -10 15 -2 0
-4 -7 -4 -15z"/>
<path d="M1730 5011 c0 -6 4 -13 10 -16 6 -3 7 1 4 9 -7 18 -14 21 -14 7z"/>
<path d="M1944 4969 c-5 -8 -3 -9 6 -4 9 6 10 2 5 -15 -5 -15 -4 -20 4 -16 13
9 14 33 2 41 -5 3 -13 0 -17 -6z"/>
<path d="M2005 4960 c-4 -6 -10 -8 -14 -6 -4 3 -8 -2 -8 -10 0 -10 4 -11 11
-4 14 14 29 13 20 -2 -4 -7 -3 -8 4 -4 6 4 9 13 5 21 -6 18 -10 19 -18 5z"/>
<path d="M2130 4896 c0 -3 9 -10 20 -16 11 -6 20 -8 20 -6 0 3 -9 10 -20 16
-11 6 -20 8 -20 6z"/>
<path d="M2271 4884 c-1 -15 37 -49 46 -41 3 4 13 1 22 -6 14 -10 14 -10 3 5
-8 9 -10 23 -6 30 4 7 4 10 -1 6 -4 -4 -15 -3 -22 4 -11 9 -16 9 -23 -1 -6
-11 -9 -11 -13 0 -3 8 -6 9 -6 3z m44 -32 c-8 -8 -25 10 -19 20 4 6 9 5 15 -3
4 -7 6 -15 4 -17z"/>
<path d="M2254 4845 c0 -13 3 -22 7 -19 8 4 6 30 -2 38 -3 3 -5 -5 -5 -19z"/>
<path d="M2390 4816 c0 -2 8 -10 18 -17 15 -13 16 -12 3 4 -13 16 -21 21 -21
13z"/>
<path d="M2515 4809 c-4 -6 -5 -12 -2 -15 2 -3 7 2 10 11 7 17 1 20 -8 4z"/>
<path d="M2436 4793 c-6 -14 -5 -15 5 -6 7 7 10 15 7 18 -3 3 -9 -2 -12 -12z"/>
<path d="M2490 4781 c0 -6 4 -13 10 -16 6 -3 7 1 4 9 -7 18 -14 21 -14 7z"/>
<path d="M2590 4760 c0 -5 5 -10 11 -10 5 0 7 5 4 10 -3 6 -8 10 -11 10 -2 0
-4 -4 -4 -10z"/>
<path d="M2679 4761 c11 -7 11 -9 0 -13 -8 -3 1 -5 19 -5 40 0 37 21 -4 24
-19 1 -24 -1 -15 -6z"/>
<path d="M2736 4734 c-4 -9 -4 -19 -1 -22 3 -3 5 0 5 6 0 7 5 12 11 12 5 0 8
-4 5 -8 -8 -14 27 -10 41 4 10 10 9 13 -3 18 -24 9 -27 7 -20 -11 6 -16 5 -16
-12 0 -18 17 -20 17 -26 1z"/>
<path d="M3029 4653 c-7 -10 -9 -15 -5 -11 5 4 15 3 22 -3 9 -7 12 -6 10 5 -3
25 -12 28 -27 9z"/>
<path d="M2924 4642 c4 -3 14 -7 22 -8 9 -1 13 0 10 4 -4 3 -14 7 -22 8 -9 1
-13 0 -10 -4z"/>
<path d="M3090 4642 c0 -15 28 -23 36 -9 4 7 4 9 -1 5 -4 -4 -14 -3 -22 3 -8
7 -13 8 -13 1z"/>
<path d="M3096 4607 c3 -10 9 -15 12 -12 3 3 0 11 -7 18 -10 9 -11 8 -5 -6z"/>
<path d="M3290 4584 c0 -8 5 -12 10 -9 6 4 8 11 5 16 -9 14 -15 11 -15 -7z"/>
<path d="M3351 4572 c3 -21 -2 -32 -13 -26 -7 5 -8 3 -3 -6 6 -10 12 -8 25 8
21 25 33 18 19 -12 -10 -20 -10 -20 5 -2 16 20 16 20 31 0 10 -13 13 -14 10
-3 -4 10 0 16 10 16 9 0 14 -6 11 -13 -3 -8 -2 -16 3 -18 11 -7 10 27 -2 42
-7 9 -13 9 -23 1 -10 -8 -14 -8 -14 0 0 6 -3 10 -7 10 -5 -1 -10 0 -13 1 -16
6 -39 7 -39 2z"/>
<path d="M3643 4489 c9 -6 15 -14 12 -20 -4 -5 -1 -9 4 -9 6 0 11 4 11 8 0 12
-22 32 -34 32 -6 0 -3 -5 7 -11z"/>
<path d="M3496 4482 c-3 -5 1 -9 9 -9 8 0 12 4 9 9 -3 4 -7 8 -9 8 -2 0 -6 -4
-9 -8z"/>
<path d="M3555 4481 c-3 -5 -2 -12 3 -15 5 -3 9 1 9 9 0 17 -3 19 -12 6z"/>
<path d="M3745 4439 c-6 -8 -4 -10 5 -4 10 6 12 4 6 -11 -6 -15 -5 -17 5 -6 9
9 10 15 2 23 -8 8 -13 7 -18 -2z"/>
<path d="M3810 4443 c0 -6 7 -18 15 -26 8 -8 11 -18 7 -21 -3 -4 2 -4 13 0 12
5 14 9 7 12 -10 3 -10 7 -2 17 7 8 7 15 1 19 -5 4 -13 1 -17 -5 -4 -8 -9 -7
-15 2 -6 9 -9 10 -9 2z"/>
<path d="M3923 4399 c13 -21 23 -24 32 -10 6 10 -11 24 -32 27 -9 2 -9 -2 0
-17z"/>
<path d="M4233 4308 c-2 -16 1 -18 10 -9 7 7 8 14 1 21 -6 6 -10 2 -11 -12z"/>
<path d="M5869 4303 c-13 -16 -12 -17 4 -4 9 7 17 15 17 17 0 8 -8 3 -21 -13z"/>
<path d="M4255 4280 c3 -5 8 -10 11 -10 2 0 4 5 4 10 0 6 -5 10 -11 10 -5 0
-7 -4 -4 -10z"/>
<path d="M4460 4226 c0 -2 7 -6 15 -10 8 -3 15 -1 15 4 0 6 -7 10 -15 10 -8 0
-15 -2 -15 -4z"/>
<path d="M5868 4183 c7 -3 16 -2 19 1 4 3 -2 6 -13 5 -11 0 -14 -3 -6 -6z"/>
<path d="M4793 4125 c0 -8 4 -15 9 -15 4 0 8 4 8 9 0 6 -4 12 -8 15 -5 3 -9
-1 -9 -9z"/>
<path d="M4965 4130 c-4 -6 -12 -7 -18 -4 -7 4 -9 3 -4 -1 4 -5 16 -10 27 -12
14 -2 18 2 14 12 -7 18 -11 19 -19 5z"/>
<path d="M4950 4091 c0 -6 5 -13 12 -17 6 -4 8 -3 4 4 -3 5 0 13 6 15 8 3 6 6
-4 6 -10 1 -18 -3 -18 -8z"/>
<path d="M5050 4080 c0 -5 5 -10 10 -10 6 0 10 5 10 10 0 6 -4 10 -10 10 -5 0
-10 -4 -10 -10z"/>
<path d="M5110 4061 c0 -6 4 -13 10 -16 6 -3 7 1 4 9 -7 18 -14 21 -14 7z"/>
<path d="M5068 4053 c6 -2 10 -8 8 -12 -3 -4 1 -8 9 -8 8 0 15 4 15 8 0 7 -26
20 -38 18 -4 0 -1 -3 6 -6z"/>
<path d="M5868 3983 c7 -3 16 -2 19 1 4 3 -2 6 -13 5 -11 0 -14 -3 -6 -6z"/>
<path d="M5870 3939 c0 -5 5 -7 10 -4 6 3 10 8 10 11 0 2 -4 4 -10 4 -5 0 -10
-5 -10 -11z"/>
<path d="M533 3785 c0 -8 4 -15 9 -15 4 0 8 4 8 9 0 6 -4 12 -8 15 -5 3 -9 -1
-9 -9z"/>
<path d="M534 3744 c-18 -14 -18 -15 4 -4 12 6 22 13 22 15 0 8 -5 6 -26 -11z"/>
<path d="M5870 3740 c0 -5 5 -10 11 -10 5 0 7 5 4 10 -3 6 -8 10 -11 10 -2 0
-4 -4 -4 -10z"/>
<path d="M526 3702 c-3 -5 1 -9 9 -9 8 0 12 4 9 9 -3 4 -7 8 -9 8 -2 0 -6 -4
-9 -8z"/>
<path d="M5868 3663 c7 -3 16 -2 19 1 4 3 -2 6 -13 5 -11 0 -14 -3 -6 -6z"/>
<path d="M530 3640 c0 -5 5 -10 10 -10 6 0 10 5 10 10 0 6 -4 10 -10 10 -5 0
-10 -4 -10 -10z"/>
<path d="M530 3600 c0 -5 5 -10 11 -10 5 0 7 5 4 10 -3 6 -8 10 -11 10 -2 0
-4 -4 -4 -10z"/>
<path d="M530 3560 c0 -5 5 -10 10 -10 6 0 10 5 10 10 0 6 -4 10 -10 10 -5 0
-10 -4 -10 -10z"/>
<path d="M5855 3460 c-3 -5 -1 -10 4 -10 6 0 11 5 11 10 0 6 -2 10 -4 10 -3 0
-8 -4 -11 -10z"/>
<path d="M510 3396 c0 -2 8 -10 18 -17 15 -13 16 -12 3 4 -13 16 -21 21 -21
13z"/>
<path d="M536 3256 c6 -15 4 -17 -6 -11 -9 6 -11 4 -5 -4 5 -9 10 -10 18 -2 8
8 7 14 -2 24 -10 10 -11 8 -5 -7z"/>
<path d="M5845 3260 c-3 -6 1 -7 9 -4 18 7 21 14 7 14 -6 0 -13 -4 -16 -10z"/>
<path d="M5855 3180 c-3 -5 -1 -10 4 -10 6 0 11 5 11 10 0 6 -2 10 -4 10 -3 0
-8 -4 -11 -10z"/>
<path d="M5853 3132 c-7 -4 -9 -13 -4 -21 6 -9 10 -7 14 8 3 12 4 21 4 21 -1
0 -7 -4 -14 -8z"/>
<path d="M5855 2980 c-3 -5 -1 -10 4 -10 6 0 11 5 11 10 0 6 -2 10 -4 10 -3 0
-8 -4 -11 -10z"/>
<path d="M530 2960 c0 -5 5 -10 10 -10 6 0 10 5 10 10 0 6 -4 10 -10 10 -5 0
-10 -4 -10 -10z"/>
<path d="M530 2925 c0 -5 5 -17 10 -25 5 -8 10 -10 10 -5 0 6 -5 17 -10 25 -5
8 -10 11 -10 5z"/>
<path d="M5855 2900 c-3 -5 -1 -10 4 -10 6 0 11 5 11 10 0 6 -2 10 -4 10 -3 0
-8 -4 -11 -10z"/>
<path d="M5850 2871 c0 -6 4 -13 10 -16 6 -3 7 1 4 9 -7 18 -14 21 -14 7z"/>
<path d="M537 2849 c7 -7 15 -10 18 -7 3 3 -2 9 -12 12 -14 6 -15 5 -6 -5z"/>
<path d="M510 2837 c0 -2 6 -10 14 -16 11 -9 16 -9 22 1 4 7 4 10 -1 6 -4 -4
-14 -3 -22 3 -7 6 -13 9 -13 6z"/>
<path d="M5850 2770 c-9 -6 -10 -10 -3 -10 6 0 15 5 18 10 8 12 4 12 -15 0z"/>
<path d="M540 2740 c-9 -6 -10 -10 -3 -10 6 0 15 5 18 10 8 12 4 12 -15 0z"/>
<path d="M5855 2740 c3 -5 8 -10 11 -10 2 0 4 5 4 10 0 6 -5 10 -11 10 -5 0
-7 -4 -4 -10z"/>
<path d="M540 2660 c0 -5 5 -10 11 -10 5 0 7 5 4 10 -3 6 -8 10 -11 10 -2 0
-4 -4 -4 -10z"/>
<path d="M5850 2601 c0 -11 4 -22 9 -25 4 -3 6 6 3 19 -5 30 -12 33 -12 6z"/>
<path d="M540 2601 c0 -6 4 -13 10 -16 6 -3 7 1 4 9 -7 18 -14 21 -14 7z"/>
<path d="M537 2559 c4 -13 8 -18 11 -10 2 7 -1 18 -6 23 -8 8 -9 4 -5 -13z"/>
<path d="M515 2540 c-3 -5 -1 -10 4 -10 6 0 11 5 11 10 0 6 -2 10 -4 10 -3 0
-8 -4 -11 -10z"/>
<path d="M5870 2481 c0 -6 4 -13 10 -16 6 -3 7 1 4 9 -7 18 -14 21 -14 7z"/>
<path d="M5846 2402 c-2 -4 -1 -14 4 -22 7 -11 9 -9 7 8 -1 24 -3 26 -11 14z"/>
<path d="M530 2380 c0 -5 5 -10 11 -10 5 0 7 5 4 10 -3 6 -8 10 -11 10 -2 0
-4 -4 -4 -10z"/>
<path d="M535 2350 c-3 -6 1 -7 9 -4 18 7 21 14 7 14 -6 0 -13 -4 -16 -10z"/>
<path d="M536 2317 c3 -10 9 -15 12 -12 3 3 0 11 -7 18 -10 9 -11 8 -5 -6z"/>
<path d="M516 2293 c-6 -14 -5 -15 5 -6 7 7 10 15 7 18 -3 3 -9 -2 -12 -12z"/>
<path d="M5857 2303 c-9 -9 -9 -41 1 -46 4 -3 7 8 7 24 0 16 0 29 -1 29 0 0
-4 -3 -7 -7z"/>
<path d="M536 2257 c3 -10 9 -15 12 -12 3 3 0 11 -7 18 -10 9 -11 8 -5 -6z"/>
<path d="M505 2240 c10 -11 20 -20 23 -20 3 0 -3 9 -13 20 -10 11 -20 20 -23
20 -3 0 3 -9 13 -20z"/>
<path d="M530 2100 c0 -5 5 -10 11 -10 5 0 7 5 4 10 -3 6 -8 10 -11 10 -2 0
-4 -4 -4 -10z"/>
<path d="M5850 2076 c0 -8 4 -17 9 -20 5 -4 7 3 4 14 -6 23 -13 26 -13 6z"/>
<path d="M510 2056 c0 -2 8 -10 18 -17 15 -13 16 -12 3 4 -13 16 -21 21 -21
13z"/>
<path d="M5846 1925 c4 -8 11 -15 16 -15 6 0 5 6 -2 15 -7 8 -14 15 -16 15 -2
0 -1 -7 2 -15z"/>
<path d="M5867 1879 c7 -7 15 -10 18 -7 3 3 -2 9 -12 12 -14 6 -15 5 -6 -5z"/>
<path d="M5860 1806 c0 -2 8 -10 18 -17 15 -13 16 -12 3 4 -13 16 -21 21 -21
13z"/>
<path d="M541 1764 c0 -11 3 -14 6 -6 3 7 2 16 -1 19 -3 4 -6 -2 -5 -13z"/>
<path d="M5845 1771 c-3 -5 0 -13 6 -17 7 -4 9 -3 5 4 -3 5 0 13 6 15 9 4 10
6 1 6 -6 1 -14 -3 -18 -8z"/>
<path d="M530 1659 c0 -5 5 -7 10 -4 6 3 10 8 10 11 0 2 -4 4 -10 4 -5 0 -10
-5 -10 -11z"/>
<path d="M5855 1660 c3 -5 8 -10 11 -10 2 0 4 5 4 10 0 6 -5 10 -11 10 -5 0
-7 -4 -4 -10z"/>
<path d="M535 1560 c0 -15 3 -26 8 -23 4 2 7 13 7 23 0 10 -3 21 -7 23 -5 3
-8 -8 -8 -23z"/>
<path d="M5850 1490 c-9 -6 -10 -10 -3 -10 6 0 15 5 18 10 8 12 4 12 -15 0z"/>
<path d="M543 1451 c0 -11 5 -18 9 -15 4 3 5 11 1 19 -7 21 -12 19 -10 -4z"/>
<path d="M5854 1418 c-4 -7 -4 -10 1 -6 4 4 15 2 24 -5 14 -11 14 -10 2 6 -16
20 -18 21 -27 5z"/>
<path d="M5854 1359 c-3 -6 -2 -15 3 -20 5 -5 9 -1 9 11 0 23 -2 24 -12 9z"/>
<path d="M510 1326 c0 -2 7 -7 16 -10 8 -3 12 -2 9 4 -6 10 -25 14 -25 6z"/>
<path d="M5870 1299 c0 -5 5 -7 10 -4 6 3 10 8 10 11 0 2 -4 4 -10 4 -5 0 -10
-5 -10 -11z"/>
<path d="M5850 1286 c0 -8 4 -17 9 -20 5 -4 7 3 4 14 -6 23 -13 26 -13 6z"/>
<path d="M5856 1242 c-3 -5 1 -9 9 -9 8 0 12 4 9 9 -3 4 -7 8 -9 8 -2 0 -6 -4
-9 -8z"/>
<path d="M530 1206 c0 -2 7 -7 16 -10 8 -3 12 -2 9 4 -6 10 -25 14 -25 6z"/>
<path d="M530 1180 c0 -5 5 -10 11 -10 5 0 7 5 4 10 -3 6 -8 10 -11 10 -2 0
-4 -4 -4 -10z"/>
<path d="M535 1150 c-3 -6 1 -7 9 -4 18 7 21 14 7 14 -6 0 -13 -4 -16 -10z"/>
<path d="M540 1120 c0 -5 5 -10 11 -10 5 0 7 5 4 10 -3 6 -8 10 -11 10 -2 0
-4 -4 -4 -10z"/>
<path d="M5850 1105 c0 -5 5 -17 10 -25 5 -8 10 -10 10 -5 0 6 -5 17 -10 25
-5 8 -10 11 -10 5z"/>
<path d="M530 1059 c0 -5 5 -7 10 -4 6 3 10 8 10 11 0 2 -4 4 -10 4 -5 0 -10
-5 -10 -11z"/>
<path d="M530 1020 c0 -5 5 -10 11 -10 5 0 7 5 4 10 -3 6 -8 10 -11 10 -2 0
-4 -4 -4 -10z"/>
<path d="M5854 1018 c-4 -7 -4 -10 1 -6 4 4 15 2 24 -5 14 -11 14 -10 2 6 -16
20 -18 21 -27 5z"/>
<path d="M5850 930 c-11 -7 -11 -10 -2 -10 8 0 10 -5 6 -12 -4 -7 -3 -9 1 -5
7 6 17 37 12 37 -1 0 -9 -5 -17 -10z"/>
<path d="M535 911 c-6 -11 13 -26 22 -17 4 3 1 6 -6 6 -7 0 -9 5 -6 10 3 6 4
10 1 10 -3 0 -7 -4 -11 -9z"/>
<path d="M5832 885 c3 -3 16 -8 28 -10 12 -2 20 -1 16 2 -4 4 -16 8 -28 10
-12 2 -19 1 -16 -2z"/>
<path d="M562 827 c13 -10 15 -16 6 -25 -9 -9 -9 -15 1 -24 11 -11 12 -10 7 0
-4 7 -3 19 4 27 9 11 6 16 -12 25 -20 10 -21 10 -6 -3z"/>
<path d="M5831 813 c-1 -17 16 -25 25 -12 4 7 3 9 -4 5 -5 -3 -13 0 -15 6 -4
9 -6 10 -6 1z"/>
<path d="M590 759 c0 -5 5 -7 10 -4 6 3 10 8 10 11 0 2 -4 4 -10 4 -5 0 -10
-5 -10 -11z"/>
<path d="M5739 707 c-14 -20 -15 -24 -2 -36 13 -12 14 -11 8 10 -7 22 -7 23
11 9 18 -14 18 -14 5 3 -13 16 -2 25 13 10 10 -11 37 -12 30 -2 -3 5 -10 7
-15 4 -5 -4 -12 1 -15 9 -8 21 -16 20 -35 -7z"/>
<path d="M639 698 c-6 -12 -5 -48 1 -48 4 0 7 11 6 25 -1 22 -3 30 -7 23z"/>
<path d="M5715 660 c-4 -6 -13 -9 -21 -6 -12 5 -12 2 -3 -17 15 -28 24 -37 16
-15 -8 22 12 35 24 17 5 -8 9 -9 9 -4 0 6 -4 16 -9 24 -6 10 -10 10 -16 1z"/>
<path d="M701 604 c0 -11 3 -14 6 -6 3 7 2 16 -1 19 -3 4 -6 -2 -5 -13z"/>
<path d="M5573 589 c-13 -13 -6 -39 9 -39 5 0 7 4 4 9 -4 5 -2 11 4 13 5 1 6
9 2 15 -6 10 -11 10 -19 2z"/>
<path d="M750 560 c0 -5 5 -10 11 -10 5 0 7 5 4 10 -3 6 -8 10 -11 10 -2 0 -4
-4 -4 -10z"/>
<path d="M4952 557 c-6 -7 -27 -13 -45 -12 -38 2 -45 -16 -13 -35 17 -10 19
-10 9 1 -19 19 -16 34 4 18 14 -12 16 -12 9 0 -6 9 -5 12 5 9 8 -3 13 -10 12
-15 -1 -5 5 -10 12 -10 10 0 12 4 5 12 -8 9 -6 14 5 19 15 5 18 -1 18 -37 0
-17 11 -14 13 4 1 5 2 14 3 19 0 6 5 10 11 10 5 0 7 -8 4 -17 -5 -14 -4 -15 4
-4 11 16 36 5 26 -11 -4 -7 -2 -8 5 -4 6 4 9 12 6 17 -9 13 -65 41 -65 32 0
-5 -4 -2 -9 5 -6 11 -10 10 -19 -1z"/>
<path d="M3876 551 c-3 -4 -32 -7 -65 -6 -67 3 -84 -3 -71 -25 8 -13 10 -12
10 3 0 9 4 17 10 17 5 0 7 -8 4 -17 -4 -11 -2 -14 3 -8 9 12 56 18 49 6 -3 -4
1 -8 9 -8 8 0 13 4 12 8 -1 4 3 6 8 6 6 -1 9 -6 7 -10 -1 -5 2 -6 8 -2 5 3 10
1 10 -4 0 -6 5 -11 12 -11 9 0 9 3 0 12 -17 17 -15 24 7 25 15 1 18 -3 14 -15
-7 -18 -5 -17 17 12 8 11 10 17 3 13 -6 -4 -14 -3 -18 3 -8 12 -22 13 -29 1z"/>
<path d="M4040 545 c-7 -9 -10 -18 -6 -22 3 -3 6 -1 6 5 0 6 7 9 15 6 8 -4 12
-11 8 -17 -3 -6 -1 -7 6 -3 8 6 9 12 2 20 -6 7 -8 16 -4 19 3 4 2 7 -4 7 -6 0
-16 -7 -23 -15z"/>
<path d="M4194 549 c-3 -6 -13 -8 -21 -5 -8 3 -11 1 -8 -4 9 -14 -9 -12 -23 2
-9 9 -12 9 -12 -1 0 -10 -3 -11 -14 -2 -11 9 -15 8 -20 -4 -3 -10 -2 -14 5
-10 6 4 20 -1 32 -12 14 -12 17 -12 9 -2 -10 13 -8 16 18 16 18 0 27 -4 23
-11 -4 -6 -1 -6 8 1 18 15 41 12 65 -7 10 -8 15 -10 11 -3 -10 17 11 27 28 13
9 -8 15 -8 20 0 3 6 11 8 16 4 5 -3 6 -10 3 -16 -5 -7 -2 -8 5 -3 20 12 -13
39 -48 40 -16 0 -28 -2 -25 -6 2 -4 0 -10 -6 -14 -5 -3 -10 -2 -10 3 0 15 -48
33 -56 21z m126 -15 c0 -8 -19 -13 -24 -6 -3 5 1 9 9 9 8 0 15 -2 15 -3z"/>
<path d="M4494 549 c-4 -7 -2 -15 4 -17 7 -2 12 -10 12 -18 0 -8 4 -14 10 -14
5 0 6 8 3 18 -6 15 -5 16 13 2 17 -14 18 -13 7 1 -7 9 -9 20 -5 25 4 5 3 6 -2
2 -5 -4 -15 -3 -22 3 -9 7 -14 6 -20 -2z"/>
<path d="M5345 550 c-4 -6 -10 -8 -15 -5 -14 9 -23 -16 -11 -28 9 -9 10 -7 5
8 -7 17 -6 18 8 7 12 -10 18 -10 27 2 8 9 8 16 2 20 -5 4 -12 2 -16 -4z"/>
<path d="M5380 539 c-7 -11 -9 -23 -6 -27 3 -3 6 0 6 6 0 18 21 14 37 -5 10
-13 10 -9 -2 15 -18 38 -21 39 -35 11z"/>
<path d="M798 543 c7 -3 16 -2 19 1 4 3 -2 6 -13 5 -11 0 -14 -3 -6 -6z"/>
<path d="M900 535 c-7 -9 -10 -18 -6 -22 3 -3 6 -1 6 5 0 6 8 12 18 14 11 2
13 6 6 11 -7 4 -17 0 -24 -8z"/>
<path d="M2772 523 c1 -18 5 -30 8 -28 9 5 6 43 -3 52 -4 4 -7 -7 -5 -24z"/>
<path d="M3006 533 c-3 -7 0 -15 7 -19 7 -4 8 -3 4 1 -4 5 3 15 15 21 l23 13
-22 -2 c-12 -1 -25 -7 -27 -14z"/>
<path d="M3500 535 c-19 -23 -8 -25 14 -4 11 11 15 19 9 19 -6 0 -16 -7 -23
-15z"/>
<path d="M3683 536 c-9 -11 -9 -15 0 -19 7 -3 14 3 14 14 2 22 2 22 -14 5z"/>
<path d="M4850 542 c0 -6 -8 -13 -17 -15 -16 -4 -16 -5 -1 -6 18 -1 34 16 24
26 -3 4 -6 1 -6 -5z"/>
<path d="M5050 538 c0 -4 5 -10 10 -13 6 -3 10 -1 10 4 0 6 5 11 10 11 7 0 7
-7 0 -22 -10 -21 -10 -21 3 -5 8 10 20 16 27 15 7 -2 14 2 17 8 2 7 -12 10
-37 10 -22 0 -40 -4 -40 -8z"/>
<path d="M5270 531 l-24 -19 25 1 c16 1 25 8 25 19 0 10 0 18 -1 18 0 0 -11
-9 -25 -19z"/>
<path d="M2393 518 c-2 -18 0 -20 7 -8 12 18 13 30 2 30 -4 0 -9 -10 -9 -22z"/>
<path d="M3710 520 c0 -5 5 -10 11 -10 5 0 7 5 4 10 -3 6 -8 10 -11 10 -2 0
-4 -4 -4 -10z"/>
<path d="M5169 517 c6 -8 7 -18 3 -22 -4 -5 -1 -5 6 -1 10 6 10 11 1 22 -6 8
-14 14 -16 14 -3 0 0 -6 6 -13z"/>
<path d="M2870 510 c0 -5 5 -10 11 -10 5 0 7 5 4 10 -3 6 -8 10 -11 10 -2 0
-4 -4 -4 -10z"/>
<path d="M990 500 c0 -5 9 -8 20 -7 21 1 18 10 -5 13 -8 1 -15 -2 -15 -6z"/>
<path d="M1386 498 c3 -4 11 -5 19 -1 21 7 19 12 -4 10 -11 0 -18 -5 -15 -9z"/>
<path d="M2255 500 c3 -5 8 -10 11 -10 2 0 4 5 4 10 0 6 -5 10 -11 10 -5 0 -7
-4 -4 -10z"/>
<path d="M2133 485 c0 -8 4 -12 9 -9 5 3 6 10 3 15 -9 13 -12 11 -12 -6z"/>
<path d="M1666 478 c3 -5 10 -6 15 -3 13 9 11 12 -6 12 -8 0 -12 -4 -9 -9z"/>
</g>
</svg>
